HIERARCHY
ROOT Hips
{
	OFFSET 0.000000 0.000000 0.000000
	CHANNELS 6 Xposition Yposition Zposition Zrotation Yrotation Xrotation 
	JOINT LHipJoint
	{
		OFFSET 0.000000 0.000000 0.000000
		CHANNELS 3 Zrotation Yrotation Xrotation
		JOINT LeftUpLeg
		{
			OFFSET 1.363060 -1.794630 0.839290
			CHANNELS 3 Zrotation Yrotation Xrotation
			JOINT LeftLeg
			{
				OFFSET 2.448110 -6.726130 0.000000
				CHANNELS 3 Zrotation Yrotation Xrotation
				JOINT LeftFoot
				{
					OFFSET 2.562200 -7.039590 0.000000
					CHANNELS 3 Zrotation Yrotation Xrotation
					JOINT LeftToeBase
					{
						OFFSET 0.157640 -0.433110 2.322550
						CHANNELS 3 Zrotation Yrotation Xrotation
						End Site
						{
							OFFSET 0.000000 0.000000 0.000000
						}
					}
				}
			}
		}
	}
	JOINT RHipJoint
	{
		OFFSET 0.000000 0.000000 0.000000
		CHANNELS 3 Zrotation Yrotation Xrotation
		JOINT RightUpLeg
		{
			OFFSET -1.305520 -1.794630 0.839290
			CHANNELS 3 Zrotation Yrotation Xrotation
			JOINT RightLeg
			{
				OFFSET -2.542530 -6.985550 0.000000
				CHANNELS 3 Zrotation Yrotation Xrotation
				JOINT RightFoot
				{
					OFFSET -2.568260 -7.056230 0.000000
					CHANNELS 3 Zrotation Yrotation Xrotation
					JOINT RightToeBase
					{
						OFFSET -0.164730 -0.452590 2.363150
						CHANNELS 3 Zrotation Yrotation Xrotation
						End Site
						{
							OFFSET 0.000000 0.000000 0.000000
						}
					}
				}
			}
		}
	}
	JOINT LowerBack
	{
		OFFSET 0.000000 0.000000 0.000000
		CHANNELS 3 Zrotation Yrotation Xrotation
		JOINT Spine
		{
			OFFSET 0.028270 2.035590 -0.193380
			CHANNELS 3 Zrotation Yrotation Xrotation
			JOINT Spine1
			{
				OFFSET 0.056720 2.048850 -0.042750
				CHANNELS 3 Zrotation Yrotation Xrotation
				JOINT Neck
				{
					OFFSET 0.000000 0.000000 0.000000
					CHANNELS 3 Zrotation Yrotation Xrotation
					JOINT Neck1
					{
						OFFSET -0.054170 1.746240 0.172020
						CHANNELS 3 Zrotation Yrotation Xrotation
						JOINT Head
						{
							OFFSET 0.104070 1.761360 -0.123970
							CHANNELS 3 Zrotation Yrotation Xrotation
							End Site
							{
								OFFSET 0.000000 0.000000 0.000000
							}
						}
					}
				}
				JOINT LeftShoulder
				{
					OFFSET 0.000000 0.000000 0.000000
					CHANNELS 3 Zrotation Yrotation Xrotation
					JOINT LeftArm
					{
						OFFSET 3.362410 1.200890 -0.311210
						CHANNELS 3 Zrotation Yrotation Xrotation
						JOINT LeftForeArm
						{
							OFFSET 4.983000 -0.000000 -0.000000
							CHANNELS 3 Zrotation Yrotation Xrotation
							JOINT LeftHand
							{
								OFFSET 3.483560 -0.000000 -0.000000
								CHANNELS 3 Zrotation Yrotation Xrotation
								JOINT LeftFingerBase
								{
									OFFSET 0.000000 0.000000 0.000000
									CHANNELS 3 Zrotation Yrotation Xrotation
									JOINT LeftHandIndex1
									{
										OFFSET 0.715260 -0.000000 -0.000000
										CHANNELS 3 Zrotation Yrotation Xrotation
										End Site
										{
											OFFSET 0.000000 0.000000 0.000000
										}
									}
								}
								JOINT LThumb
								{
									OFFSET 0.000000 0.000000 0.000000
									CHANNELS 3 Zrotation Yrotation Xrotation
									End Site
									{
										OFFSET 0.000000 0.000000 0.000000
									}
								}
							}
						}
					}
				}
				JOINT RightShoulder
				{
					OFFSET 0.000000 0.000000 0.000000
					CHANNELS 3 Zrotation Yrotation Xrotation
					JOINT RightArm
					{
						OFFSET -3.136600 1.374050 -0.404650
						CHANNELS 3 Zrotation Yrotation Xrotation
						JOINT RightForeArm
						{
							OFFSET -5.241900 -0.000000 -0.000000
							CHANNELS 3 Zrotation Yrotation Xrotation
							JOINT RightHand
							{
								OFFSET -3.444170 -0.000000 -0.000000
								CHANNELS 3 Zrotation Yrotation Xrotation
								JOINT RightFingerBase
								{
									OFFSET 0.000000 0.000000 0.000000
									CHANNELS 3 Zrotation Yrotation Xrotation
									JOINT RightHandIndex1
									{
										OFFSET -0.622530 -0.000000 -0.000000
										CHANNELS 3 Zrotation Yrotation Xrotation
										End Site
										{
											OFFSET 0.000000 0.000000 0.000000
										}
									}
								}
								JOINT RThumb
								{
									OFFSET 0.000000 0.000000 0.000000
									CHANNELS 3 Zrotation Yrotation Xrotation
									End Site
									{
										OFFSET 0.000000 0.000000 0.000000
									}
								}
							}
						}
					}
				}
			}
		}
	}
}
MOTION
Frames: 5
Frame Time: 0.008333
-11.922027 15.910511 14.706171 62.480321 84.854668 72.726914 2.164970 -0.612988 -7.239123 -15.193799 -8.180719 -37.495217 -8.736472 20.114044 45.135316 2.528064 1.955160 3.696539 14.267384 -6.197573 -15.213848 6.613127 13.128660 -10.726995 7.080396 -15.866440 -6.880235 -2.671882 -11.904294 41.795722 -4.091368 -0.786668 -14.453730 -12.718429 -1.358774 -30.578819 -7.673109 -2.690900 22.182109 2.959804 3.451895 -9.793472 -1.193073 3.259487 -1.411602 -2.338783 1.108704 -11.487320 0.915416 0.479873 7.290329 -1.383486 -4.322426 12.186291 11.942205 2.239325 -3.198124 -84.076619 17.051115 20.694644 140.917363 -64.713393 -131.028958 -7.378799 14.900965 -2.992137 -0.000000 -0.000000 -0.000000 0.000000 0.000000 0.000000 -0.000000 -0.000000 0.000000 -8.555958 8.326385 3.193526 67.535280 46.320233 6.892722 -130.280283 82.489112 -122.425213 4.991098 -2.831174 -0.448199 0.000000 0.000000 -0.000000 0.000000 0.000000 -0.000000 0.000000 0.000000 -0.000000 
-11.621772 15.997147 14.737402 66.283544 84.607980 76.562425 2.124704 -0.173105 -6.933872 -16.269562 -8.848105 -36.333587 -8.633648 19.101614 40.054114 0.693240 0.584719 3.543765 12.316744 -3.671497 -14.599027 6.628190 13.460703 -10.854297 6.094675 -16.283011 -5.298678 -2.051247 -11.746145 41.041602 -0.259240 0.013576 -13.188113 -13.187956 -0.665773 -30.633291 -7.945789 -2.543646 22.117008 2.925990 4.002183 -10.075380 -2.254562 4.053966 -1.381497 -1.568162 1.101522 -11.814028 0.458311 0.305286 7.471082 -0.445171 -5.541580 12.155271 12.478985 1.392927 -3.200467 -84.173123 17.579658 20.796023 141.691430 -64.460514 -131.786956 -6.655422 15.563827 -3.040383 -0.000000 -0.000000 -0.000000 0.000000 -0.000000 0.000000 0.000000 -0.000000 0.000000 -7.418803 7.219465 2.899828 67.549107 45.462599 7.606232 -135.084644 81.661908 -126.309715 2.795691 -3.115754 -0.473215 0.000000 -0.000000 0.000000 -0.000000 -0.000000 -0.000000 0.000000 -0.000000 0.000000 
-11.320616 16.073874 14.771562 70.396880 84.362587 80.618605 2.221686 0.233626 -6.671850 -17.346668 -9.771420 -34.722930 -9.049772 17.744113 34.514765 -0.253704 -0.129637 3.804561 12.021551 -2.484483 -15.134967 6.457580 13.888420 -10.935728 5.367794 -17.163535 -3.818989 -1.412790 -11.179164 40.379787 2.832567 0.513112 -11.860781 -13.182043 0.344814 -29.368784 -8.222620 -2.411807 22.026345 2.925546 4.243684 -10.261914 -2.422248 4.281209 -1.396578 -1.554299 1.071364 -12.001146 0.077789 0.284874 7.600257 -0.059038 -6.028983 12.934472 12.367468 1.168018 -3.392211 -84.388354 18.636195 21.818639 140.756426 -63.514911 -129.475598 -6.517658 14.785711 -2.864714 -0.000000 -0.000000 -0.000000 -0.000000 0.000000 0.000000 0.000000 -0.000000 0.000000 -7.235236 6.949744 2.705428 67.594857 44.722244 8.660974 -137.307642 80.492052 -128.339777 1.935930 -3.829388 -0.575250 -0.000000 -0.000000 -0.000000 -0.000000 -0.000000 0.000000 -0.000000 -0.000000 -0.000000 
-11.018273 16.138589 14.802417 74.052776 84.140554 84.132084 2.506086 0.495307 -6.369811 -18.734998 -10.387084 -32.951363 -9.372180 15.906797 28.823165 -1.138570 -0.462246 4.592970 11.871207 -3.098201 -14.460095 6.091526 14.285899 -11.108592 4.854724 -16.755401 -1.668437 -0.694270 -11.857766 39.213053 7.063937 0.829837 -10.584188 -13.630827 1.450802 -28.920547 -8.369266 -2.278083 21.870037 2.867712 4.405638 -10.320841 -2.412014 4.399917 -1.358466 -1.717118 1.075581 -12.167633 -0.255799 0.323292 7.708381 0.397871 -6.415055 13.821242 12.214853 1.133880 -3.453057 -84.653159 19.597236 22.290454 140.721745 -62.901052 -128.544171 -8.037368 14.382991 -2.959447 -0.000000 -0.000000 -0.000000 -0.000000 0.000000 0.000000 -0.000000 -0.000000 0.000000 -7.373625 6.797853 2.633594 67.669423 44.166244 10.330394 -136.444535 78.831584 -126.070096 2.014059 -3.088691 -0.459118 0.000000 0.000000 0.000000 0.000000 -0.000000 0.000000 0.000000 0.000000 0.000000 
-10.710766 16.213514 14.828919 78.215489 83.917127 88.234623 2.269881 0.652882 -6.313633 -19.924119 -10.443201 -30.929115 -9.402526 13.541346 23.031196 -2.801742 -0.428663 6.235282 11.052617 -2.504131 -13.846686 5.839612 14.512580 -10.978626 4.399606 -17.052416 -0.263228 -0.172535 -11.813313 38.279286 10.357034 1.135815 -8.962191 -13.161878 2.425823 -26.882026 -8.419545 -2.100409 21.696438 2.792270 4.675584 -10.488785 -2.451158 4.592270 -1.511431 -1.898536 0.963497 -12.147893 -0.655761 0.275814 7.887003 0.361265 -6.950687 13.751931 11.888757 0.727475 -3.480665 -84.787316 20.692714 22.623833 140.905474 -62.396022 -128.781576 -7.093982 15.063778 -2.991650 -0.000000 -0.000000 -0.000000 -0.000000 0.000000 -0.000000 -0.000000 0.000000 0.000000 -7.348415 6.462845 2.508864 67.725117 43.265771 10.915483 -139.688688 78.013234 -129.788298 3.238740 -4.015507 -0.631599 0.000000 0.000000 -0.000000 -0.000000 0.000000 -0.000000 0.000000 0.000000 -0.000000 
